<?xml version="1.0" encoding="UTF-8" standalone="no"?>
<!DOCTYPE svg PUBLIC "-//W3C//DTD SVG 1.1//EN" "http://www.w3.org/Graphics/SVG/1.1/DTD/svg11.dtd">
<svg xmlns="http://www.w3.org/2000/svg" version="1.1" viewBox="0 0 21 20">
<path fill="#1ca8c2" fill-opacity="0.996" d="
  M 8.81 0.00
  L 12.06 0.00
  L 15.42 1.13
  Q 16.02 1.33 15.84 1.94
  C 15.66 2.56 15.12 2.57 14.57 2.34
  C 5.58 -1.40 -3.17 8.84 4.25 16.18
  C 11.43 23.27 24.16 13.87 18.06 5.54
  Q 17.68 5.02 17.34 5.56
  L 11.04 15.60
  A 0.74 0.73 -46.2 0 1 9.81 15.63
  L 5.71 9.74
  Q 5.38 9.26 5.83 8.90
  C 7.02 7.95 9.36 11.99 10.10 12.85
  Q 10.50 13.33 10.83 12.80
  L 16.91 3.09
  A 0.76 0.75 -49.6 0 1 18.12 2.99
  Q 20.35 5.53 21.00 8.56
  L 21.00 11.81
  Q 19.18 18.47 12.44 20.00
  L 8.69 20.00
  Q 1.56 18.35 0.00 11.19
  L 0.00 8.69
  Q 1.75 1.66 8.81 0.00
  Z"
/>
</svg>
