<?xml version="1.0" encoding="UTF-8" standalone="no"?>
<!DOCTYPE svg PUBLIC "-//W3C//DTD SVG 1.1//EN" "http://www.w3.org/Graphics/SVG/1.1/DTD/svg11.dtd">
<svg xmlns="http://www.w3.org/2000/svg" version="1.1" viewBox="0 0 21 20">
<path fill="#fe5352" fill-opacity="0.996" d="
  M 9.06 0.00
  L 12.06 0.00
  L 15.65 1.26
  Q 16.25 1.47 15.93 2.02
  Q 15.52 2.70 14.80 2.42
  C 1.16 -2.88 -3.38 16.45 8.51 18.44
  C 15.63 19.63 23.18 12.24 18.06 5.55
  Q 17.69 5.06 17.37 5.58
  L 10.83 15.88
  Q 10.44 16.49 10.02 15.90
  L 5.59 9.60
  Q 5.21 9.05 5.85 8.84
  C 7.24 8.39 9.40 11.93 10.03 12.95
  A 0.43 0.42 45.4 0 0 10.75 12.96
  L 16.97 2.96
  A 0.66 0.65 39.9 0 1 18.02 2.87
  Q 20.26 5.41 21.00 8.31
  L 21.00 11.81
  Q 19.18 18.48 12.44 20.00
  L 8.69 20.00
  Q 1.59 18.32 0.00 11.19
  L 0.00 8.94
  Q 1.62 1.54 9.06 0.00
  Z"
/>
</svg>
